# Blender 3.4.1
# www.blender.org
mtllib cornellbox_fixed.mtl
o Back
v -1.000000 1.000000 0.000000
v -1.000000 1.000000 2.000000
v 1.000000 1.000000 0.000000
v 1.000000 1.000000 2.000000
v -1.000000 -1.000000 0.000000
v -1.000000 -1.000000 2.000000
v 1.000000 -1.000000 0.000000
v 1.000000 -1.000000 2.000000
v -0.379159 -0.379159 2.000000
v 0.379159 -0.379159 2.000000
v -0.379159 0.379159 2.000000
v 0.379159 0.379159 2.000000
vn -1.0000 -0.0000 -0.0000
vn -0.0000 -0.0000 1.0000
vn -0.0000 -0.0000 -1.0000
vt 0.125000 0.750000
vt 0.875000 0.750000
vt 0.375000 0.250000
vt 0.125000 0.500000
vt 0.625000 0.250000
vt 0.875000 0.500000
vt 0.375000 0.750000
vt 0.625000 0.750000
vt 0.375000 0.500000
vt 0.625000 0.500000
vt 0.666943 0.708057
vt 0.666943 0.541943
vt 0.833057 0.708057
vt 0.833057 0.541943
s 0
usemtl Material.004
f 7/9/1 4/5/1 3/3/1
f 1/1/2 7/9/2 3/4/2
f 7/9/1 8/10/1 4/5/1
f 1/1/2 5/7/2 7/9/2
f 10/12/3 6/8/3 9/11/3
f 9/11/3 2/2/3 11/13/3
f 11/13/3 4/6/3 12/14/3
f 12/14/3 8/10/3 10/12/3
f 10/12/3 8/10/3 6/8/3
f 9/11/3 6/8/3 2/2/3
f 11/13/3 2/2/3 4/6/3
f 12/14/3 4/6/3 8/10/3
o BackCube
v 0.052423 0.637931 0.000000
v 0.052423 0.637931 1.390161
v 0.569035 0.789860 0.000000
v 0.569035 0.789860 1.390161
v 0.204352 0.121320 0.000000
v 0.204352 0.121320 1.390161
v 0.720964 0.273249 0.000000
v 0.720964 0.273249 1.390161
vn -0.2821 0.9594 -0.0000
vn 0.9594 0.2821 -0.0000
vn 0.2821 -0.9594 -0.0000
vn -0.9594 -0.2821 -0.0000
vn -0.0000 -0.0000 -1.0000
vn -0.0000 -0.0000 1.0000
vt 0.375000 0.000000
vt 0.375000 1.000000
vt 0.125000 0.750000
vt 0.625000 0.000000
vt 0.625000 1.000000
vt 0.875000 0.750000
vt 0.125000 0.500000
vt 0.375000 0.250000
vt 0.625000 0.250000
vt 0.875000 0.500000
vt 0.375000 0.750000
vt 0.625000 0.750000
vt 0.375000 0.500000
vt 0.625000 0.500000
s 0
usemtl Material.006
f 14/18/4 15/22/4 13/15/4
f 16/23/5 19/27/5 15/22/5
f 20/28/6 17/25/6 19/27/6
f 18/26/7 13/16/7 17/25/7
f 19/27/8 13/17/8 15/21/8
f 16/24/9 18/26/9 20/28/9
f 14/18/4 16/23/4 15/22/4
f 16/23/5 20/28/5 19/27/5
f 20/28/6 18/26/6 17/25/6
f 18/26/7 14/19/7 13/16/7
f 19/27/8 17/25/8 13/17/8
f 16/24/9 14/20/9 18/26/9
o FrontCube
v -0.543717 -0.016128 0.000000
v -0.543717 -0.016128 0.738154
v -0.060080 -0.252907 0.000000
v -0.060080 -0.252907 0.738154
v -0.780496 -0.499765 0.000000
v -0.780496 -0.499765 0.738154
v -0.296859 -0.736544 0.000000
v -0.296859 -0.736544 0.738154
vn 0.4397 0.8981 -0.0000
vn 0.8981 -0.4397 -0.0000
vn -0.4397 -0.8981 -0.0000
vn -0.8981 0.4397 -0.0000
vn -0.0000 -0.0000 -1.0000
vn -0.0000 -0.0000 1.0000
vt 0.375000 0.000000
vt 0.375000 1.000000
vt 0.125000 0.750000
vt 0.625000 0.000000
vt 0.625000 1.000000
vt 0.875000 0.750000
vt 0.125000 0.500000
vt 0.375000 0.250000
vt 0.625000 0.250000
vt 0.875000 0.500000
vt 0.375000 0.750000
vt 0.625000 0.750000
vt 0.375000 0.500000
vt 0.625000 0.500000
s 0
usemtl Material.006
f 22/32/10 23/36/10 21/29/10
f 24/37/11 27/41/11 23/36/11
f 28/42/12 25/39/12 27/41/12
f 26/40/13 21/30/13 25/39/13
f 27/41/14 21/31/14 23/35/14
f 24/38/15 26/40/15 28/42/15
f 22/32/10 24/37/10 23/36/10
f 24/37/11 28/42/11 27/41/11
f 28/42/12 26/40/12 25/39/12
f 26/40/13 22/33/13 21/30/13
f 27/41/14 25/39/14 21/31/14
f 24/38/15 22/34/15 26/40/15
o LeftWall
v -1.000000 1.000000 0.000000
v -1.000000 1.000000 2.000000
v 1.000000 1.000000 0.000000
v 1.000000 1.000000 2.000000
vn -0.0000 -1.0000 -0.0000
vt 0.375000 0.000000
vt 0.625000 0.000000
vt 0.375000 0.250000
vt 0.625000 0.250000
s 0
usemtl Material.003
f 31/45/16 30/44/16 29/43/16
f 31/45/16 32/46/16 30/44/16
o RightWall
v -1.000000 -1.000000 0.000000
v -1.000000 -1.000000 2.000000
v 1.000000 -1.000000 0.000000
v 1.000000 -1.000000 2.000000
vn -0.0000 1.0000 -0.0000
vt 0.375000 0.750000
vt 0.625000 0.750000
vt 0.375000 0.500000
vt 0.625000 0.500000
s 0
usemtl Material.002
f 33/47/17 36/50/17 35/49/17
f 33/47/17 34/48/17 36/50/17
o Back.001
v -0.379159 -0.379159 2.000000
v 0.379159 -0.379159 2.000000
v -0.379159 0.379159 2.000000
v 0.379159 0.379159 2.000000
vn -0.0000 -0.0000 -1.0000
vt 0.666943 0.708057
vt 0.666943 0.541943
vt 0.833057 0.708057
vt 0.833057 0.541943
s 0
usemtl Material.004
f 39/53/18 38/52/18 37/51/18
f 39/53/18 40/54/18 38/52/18
